<?xml version="1.0" encoding="UTF-8"?>
<svg id="Layer_2" data-name="Layer 2" xmlns="http://www.w3.org/2000/svg" xmlns:xlink="http://www.w3.org/1999/xlink" viewBox="0 0 750 600">
  <defs>
    <style>
      .cls-1 {
        fill: #fff;
      }

      .cls-2 {
        opacity: .3;
      }

      .cls-3 {
        fill: none;
      }

      .cls-4 {
        clip-path: url(#clippath);
      }
    </style>
    <clipPath id="clippath">
      <rect class="cls-3" width="750" height="600"/>
    </clipPath>
  </defs>
  <g id="Layer_1-2" data-name="Layer 1">
    <g class="cls-4">
      <g class="cls-2">
        <path class="cls-1" d="M436.82,2.25c16.48,0,32.72,4.35,46.96,12.59l92.46,53.39,166.78,96.95c.95.55,2.03.85,3.11.85,3.42,0,6.21-2.78,6.21-6.21v-57.55h434.63c16.48,0,32.72,4.35,46.96,12.59l92.46,53.39,171.59,99.75v61.42l-262.36-152.11c-14.99-8.69-32.06-13.28-49.37-13.28l-.09.06h-417.54c-3.24,0-5.98,2.1-6.82,5.23-.84,3.13.48,6.31,3.27,7.93l250.01,144.99c14.99,8.69,32.07,13.28,49.39,13.28h179.18c16.48,0,32.72,4.35,46.96,12.59l85.82,49.56h-312.05c-16.51,0-32.78-4.37-47.07-12.65l-266.11-154.09-.39.23L485.47,77.31c-14.99-8.69-32.06-13.28-49.37-13.28H2.19V2.25h434.63M436.82,0H-.06v66.28h436.17c16.94,0,33.58,4.48,48.24,12.98l265.74,154.07v-.45l266.11,154.09c14.66,8.49,31.27,12.95,48.19,12.95h320.44l-93.09-53.76c-14.61-8.45-31.21-12.89-48.09-12.89h-179.18c-16.96,0-33.6-4.48-48.26-12.98l-250.01-144.99c-4.25-2.46-2.5-8.97,2.41-8.97h417.61l.02-.06c16.94,0,33.58,4.48,48.24,12.98l265.74,154.07v-66.62l-172.71-100.4-92.47-53.39c-14.61-8.45-31.21-12.89-48.09-12.89h-436.88v59.8c0,2.31-1.89,3.95-3.96,3.95-.66,0-1.34-.17-1.98-.54l-166.78-96.95-92.47-53.39C470.29,4.44,453.69,0,436.82,0h0Z"/>
        <path class="cls-1" d="M-747.98,2.27l434.63.02c16.48,0,32.72,4.35,46.96,12.59l92.46,53.39L-7.15,165.22c.95.55,2.03.85,3.11.85,3.42,0,6.21-2.78,6.21-6.21v-57.55h434.63c16.48,0,32.72,4.35,46.96,12.59l92.46,53.39,172.71,100.4.09-.05,265.65,154.02c14.99,8.69,32.06,13.28,49.37,13.28h417.61c3.24,0,5.98-2.1,6.82-5.23.84-3.13-.48-6.32-3.27-7.93l-250.01-144.99c-14.99-8.69-32.07-13.28-49.39-13.28h-179.18c-16.48,0-32.72-4.35-46.96-12.59l-85.82-49.56h312.05c16.51,0,32.78,4.37,47.07,12.65l264.98,153.44v129.29h-434.63c-16.48,0-32.72-4.35-46.96-12.59l-92.46-53.39-172.71-100.4-.09.05-265.65-154.02c-14.99-8.69-32.06-13.28-49.37-13.28H18.45c-3.24,0-5.98,2.1-6.82,5.23-.84,3.13.48,6.31,3.27,7.93l250.01,144.99c14.99,8.69,32.07,13.28,49.39,13.28h179.18c16.48,0,32.72,4.35,46.96,12.59l85.82,49.56h-312.05c-16.51,0-32.78-4.37-47.07-12.65L1.04,230.94l-.39.23L-264.69,77.33c-14.99-8.69-32.06-13.28-49.37-13.28h-433.92V2.27M-750.23.02v66.28h436.17c16.94,0,33.58,4.48,48.24,12.98L-.08,233.34v-.45l266.11,154.09c14.66,8.49,31.27,12.95,48.19,12.95h320.44l-93.09-53.76c-14.61-8.45-31.21-12.89-48.09-12.89h-179.18c-16.96,0-33.6-4.48-48.26-12.98L16.04,175.32c-4.25-2.46-2.5-8.97,2.41-8.97h417.61c16.94,0,33.58,4.48,48.24,12.98l265.74,154.07v-.11l172.71,100.4,92.47,53.39c14.61,8.45,31.21,12.89,48.09,12.89h436.88v-132.84l-266.11-154.09c-14.66-8.49-31.27-12.95-48.2-12.95h-320.44l93.09,53.76c14.61,8.45,31.21,12.89,48.09,12.89h179.18c16.96,0,33.6,4.48,48.26,12.98l250,144.99c4.25,2.46,2.5,8.97-2.41,8.97h-417.61c-16.94,0-33.58-4.48-48.24-12.98l-265.74-154.07v.11l-172.71-100.4-92.47-53.39c-14.61-8.45-31.21-12.89-48.09-12.89H-.08v59.8c0,2.31-1.89,3.95-3.96,3.95-.66,0-1.34-.17-1.98-.54l-166.78-96.95-92.47-53.39C-279.88,4.48-296.47.04-313.35.04l-436.88-.02h0Z"/>
        <path class="cls-1" d="M-314.38,202.34c16.51,0,32.78,4.37,47.07,12.65L-1.21,369.08l.39-.23,265.35,153.84c14.99,8.69,32.06,13.28,49.37,13.28h433.92v61.78h-434.63c-16.48,0-32.72-4.35-46.96-12.59l-92.46-53.39L6.98,434.83c-.95-.55-2.03-.85-3.11-.85-3.42,0-6.21,2.78-6.21,6.21v55.85c0,.94-.76,1.7-1.7,1.7h-432.93c-16.48,0-32.72-4.35-46.96-12.59l-92.46-53.39-171.59-99.75v-61.42l262.36,152.11c14.99,8.69,32.06,13.28,49.37,13.28l.09-.06H-18.62c3.24,0,5.98-2.1,6.82-5.23.84-3.13-.48-6.32-3.27-7.93l-250.01-144.99c-14.99-8.69-32.07-13.28-49.39-13.28h-179.18c-16.48,0-32.72-4.35-46.96-12.59l-85.82-49.56h312.05M-314.38,200.09h-320.44l93.09,53.76c14.61,8.45,31.21,12.89,48.09,12.89h179.18c16.96,0,33.6,4.48,48.26,12.98L-16.21,424.7c4.25,2.46,2.5,8.97-2.41,8.97h-417.61l-.02.06c-16.94,0-33.58-4.48-48.24-12.98l-265.74-154.07v66.62l172.71,100.4,92.47,53.39c14.61,8.45,31.21,12.89,48.09,12.89H-4.03c2.18,0,3.95-1.77,3.95-3.95v-55.85c0-2.31,1.89-3.95,3.96-3.95.66,0,1.34.17,1.98.54l166.78,96.95,92.47,53.39c14.61,8.45,31.21,12.89,48.09,12.89h436.88v-66.28h-436.17c-16.94,0-33.58-4.48-48.24-12.98L-.08,366.68v.45l-266.11-154.09c-14.66-8.49-31.27-12.95-48.19-12.95h0Z"/>
        <path class="cls-1" d="M-313.35,102.33c16.47,0,32.71,4.35,46.96,12.57l92.46,53.39L-1.21,268.68l.09-.05,265.65,154.02c14.99,8.69,32.06,13.28,49.37,13.28h417.61c3.24,0,5.98-2.1,6.82-5.23.84-3.13-.48-6.32-3.27-7.93l-250.01-144.99c-14.99-8.69-32.07-13.28-49.39-13.28h-179.18c-16.48,0-32.72-4.35-46.96-12.59l-85.82-49.56h312.05c16.51,0,32.78,4.37,47.07,12.65l266.11,154.09.39-.23,265.35,153.84c14.99,8.69,32.06,13.28,49.37,13.28h433.92v61.78h-434.63c-16.48,0-32.72-4.35-46.96-12.59l-92.46-53.39-166.78-96.95c-.95-.55-2.03-.85-3.11-.85-1.58,0-3.16.63-4.31,1.74-1.22,1.17-1.9,2.76-1.9,4.47v57.55h-434.63c-16.48,0-32.72-4.35-46.96-12.59l-92.46-53.39L1.03,331.37l-.09.05-265.65-154.02c-14.99-8.69-32.06-13.28-49.37-13.28h-417.61c-3.24,0-5.98,2.1-6.82,5.23-.84,3.13.48,6.32,3.27,7.93l250.01,144.99c14.99,8.69,32.07,13.28,49.39,13.28h179.18c16.48,0,32.72,4.35,46.96,12.59l85.82,49.56h-312.05c-16.51,0-32.78-4.37-47.07-12.65l-264.98-153.44V102.33h434.63M-313.35,100.08h-436.88v132.84l266.11,154.09c14.66,8.49,31.27,12.95,48.19,12.95H-115.48l-93.09-53.76c-14.61-8.45-31.21-12.89-48.09-12.89h-179.18c-16.96,0-33.6-4.48-48.26-12.98l-250.01-144.99c-4.25-2.46-2.5-8.97,2.41-8.97h417.61c16.94,0,33.58,4.48,48.24,12.98L-.11,333.42v-.11l172.71,100.4,92.47,53.39c14.61,8.45,31.21,12.89,48.09,12.89h436.88v-59.8c0-2.31,1.89-3.96,3.96-3.95.66,0,1.34.17,1.98.54l166.78,96.95,92.47,53.39c14.61,8.45,31.21,12.89,48.09,12.89h436.88v-66.28h-436.17c-16.94,0-33.58-4.48-48.24-12.98l-265.74-154.07v.45l-266.11-154.09c-14.66-8.49-31.27-12.95-48.19-12.95H115.3l93.09,53.76c14.61,8.45,31.21,12.89,48.09,12.89h179.18c16.96,0,33.6,4.48,48.26,12.98l250.01,144.99c4.25,2.46,2.5,8.97-2.41,8.97h-417.61c-16.94,0-33.58-4.48-48.24-12.98L-.08,266.62v.11l-172.71-100.4-92.47-53.39c-14.61-8.43-31.21-12.87-48.09-12.87h0Z"/>
      </g>
    </g>
  </g>
</svg>