<svg xmlns="http://www.w3.org/2000/svg" id="Layer_2" data-name="Layer 2" viewBox="0 0 750 600"><defs><clipPath id="clippath"><path d="M0 0h750v600H0z" style="fill:none"/></clipPath><style>.cls-1{fill:#fff}</style></defs><g id="Layer_1-2" data-name="Layer 1" style="clip-path:url(#clippath)"><g style="opacity:.3"><path d="M436.82 2.25c16.48 0 32.72 4.35 46.96 12.59l92.46 53.39 166.78 96.95c.95.55 2.03.85 3.11.85 3.42 0 6.21-2.78 6.21-6.21v-57.55h434.63c16.48 0 32.72 4.35 46.96 12.59l92.46 53.39L1497.98 268v61.42l-262.36-152.11a98.55 98.55 0 0 0-49.37-13.28l-.09.06H768.62c-3.24 0-5.98 2.1-6.82 5.23s.48 6.31 3.27 7.93l250.01 144.99a98.6 98.6 0 0 0 49.39 13.28h179.18c16.48 0 32.72 4.35 46.96 12.59l85.82 49.56h-312.05c-16.51 0-32.78-4.37-47.07-12.65L751.2 230.93l-.39.23L485.47 77.31a98.55 98.55 0 0 0-49.37-13.28H2.19V2.25zm0-2.25H-.06v66.28h436.17c16.94 0 33.58 4.48 48.24 12.98l265.74 154.07v-.45l266.11 154.09a96.1 96.1 0 0 0 48.19 12.95h320.44l-93.09-53.76a96.1 96.1 0 0 0-48.09-12.89h-179.18c-16.96 0-33.6-4.48-48.26-12.98L766.2 175.3c-4.25-2.46-2.5-8.97 2.41-8.97h417.61l.02-.06c16.94 0 33.58 4.48 48.24 12.98l265.74 154.07V266.7l-172.71-100.4-92.47-53.39a96.1 96.1 0 0 0-48.09-12.89H750.07v59.8c0 2.31-1.89 3.95-3.96 3.95-.66 0-1.34-.17-1.98-.54L577.35 66.28l-92.47-53.39C470.29 4.44 453.69 0 436.82 0" class="cls-1"/><path d="m-747.98 2.27 434.63.02c16.48 0 32.72 4.35 46.96 12.59l92.46 53.39 166.78 96.95c.95.55 2.03.85 3.11.85 3.42 0 6.21-2.78 6.21-6.21v-57.55H436.8c16.48 0 32.72 4.35 46.96 12.59l92.46 53.39 172.71 100.4.09-.05 265.65 154.02a98.55 98.55 0 0 0 49.37 13.28h417.61c3.24 0 5.98-2.1 6.82-5.23s-.48-6.32-3.27-7.93l-250.01-144.99a98.6 98.6 0 0 0-49.39-13.28h-179.18c-16.48 0-32.72-4.35-46.96-12.59l-85.82-49.56h312.05c16.51 0 32.78 4.37 47.07 12.65l264.98 153.44v129.29h-434.63c-16.48 0-32.72-4.35-46.96-12.59l-92.46-53.39-172.71-100.4-.09.05-265.65-154.02a98.55 98.55 0 0 0-49.37-13.28H18.45c-3.24 0-5.98 2.1-6.82 5.23s.48 6.31 3.27 7.93l250.01 144.99a98.6 98.6 0 0 0 49.39 13.28h179.18c16.48 0 32.72 4.35 46.96 12.59l85.82 49.56H314.21c-16.51 0-32.78-4.37-47.07-12.65L1.04 230.94l-.39.23-265.34-153.84a98.55 98.55 0 0 0-49.37-13.28h-433.92zm-2.25-2.25V66.3h436.17c16.94 0 33.58 4.48 48.24 12.98L-.08 233.34v-.45l266.11 154.09a96.1 96.1 0 0 0 48.19 12.95h320.44l-93.09-53.76a96.1 96.1 0 0 0-48.09-12.89H314.3c-16.96 0-33.6-4.48-48.26-12.98l-250-144.98c-4.25-2.46-2.5-8.97 2.41-8.97h417.61c16.94 0 33.58 4.48 48.24 12.98L750.04 333.4v-.11l172.71 100.4 92.47 53.39a96.1 96.1 0 0 0 48.09 12.89h436.88V367.13l-266.11-154.09a96.1 96.1 0 0 0-48.2-12.95H865.44l93.09 53.76a96.1 96.1 0 0 0 48.09 12.89h179.18c16.96 0 33.6 4.48 48.26 12.98l250 144.99c4.25 2.46 2.5 8.97-2.41 8.97h-417.61c-16.94 0-33.58-4.48-48.24-12.98L750.06 266.63v.11l-172.71-100.4-92.47-53.39a96.1 96.1 0 0 0-48.09-12.89H-.08v59.8c0 2.31-1.89 3.95-3.96 3.95-.66 0-1.34-.17-1.98-.54L-172.8 66.32l-92.47-53.39A96.04 96.04 0 0 0-313.35.04z" class="cls-1"/><path d="M-314.38 202.34c16.51 0 32.78 4.37 47.07 12.65l266.1 154.09.39-.23 265.35 153.84a98.55 98.55 0 0 0 49.37 13.28h433.92v61.78H313.19c-16.48 0-32.72-4.35-46.96-12.59l-92.46-53.39L6.98 434.83a6.24 6.24 0 0 0-3.11-.85c-3.42 0-6.21 2.78-6.21 6.21v55.85c0 .94-.76 1.7-1.7 1.7h-432.93c-16.48 0-32.72-4.35-46.96-12.59l-92.46-53.39-171.59-99.75v-61.42l262.36 152.11a98.55 98.55 0 0 0 49.37 13.28l.09-.06h417.54c3.24 0 5.98-2.1 6.82-5.23s-.48-6.32-3.27-7.93l-250.01-144.99a98.6 98.6 0 0 0-49.39-13.28h-179.18c-16.48 0-32.72-4.35-46.96-12.59l-85.82-49.56zm0-2.25h-320.44l93.09 53.76a96.1 96.1 0 0 0 48.09 12.89h179.18c16.96 0 33.6 4.48 48.26 12.98L-16.21 424.7c4.25 2.46 2.5 8.97-2.41 8.97h-417.61l-.02.06c-16.94 0-33.58-4.48-48.24-12.98l-265.74-154.07v66.62l172.71 100.4 92.47 53.39a96.1 96.1 0 0 0 48.09 12.89H-4.03c2.18 0 3.95-1.77 3.95-3.95v-55.85c0-2.31 1.89-3.95 3.96-3.95.66 0 1.34.17 1.98.54l166.78 96.95 92.47 53.39A96.1 96.1 0 0 0 313.2 600h436.88v-66.28H313.91c-16.94 0-33.58-4.48-48.24-12.98L-.08 366.68v.45l-266.11-154.09a96.1 96.1 0 0 0-48.19-12.95" class="cls-1"/><path d="M-313.35 102.33c16.47 0 32.71 4.35 46.96 12.57l92.46 53.39L-1.21 268.68l.09-.05 265.65 154.02a98.55 98.55 0 0 0 49.37 13.28h417.61c3.24 0 5.98-2.1 6.82-5.23s-.48-6.32-3.27-7.93L485.05 277.78a98.6 98.6 0 0 0-49.39-13.28H256.48c-16.48 0-32.72-4.35-46.96-12.59l-85.82-49.56h312.05c16.51 0 32.78 4.37 47.07 12.65l266.11 154.09.39-.23 265.35 153.84a98.55 98.55 0 0 0 49.37 13.28h433.92v61.78h-434.63c-16.48 0-32.72-4.35-46.96-12.59l-92.46-53.39-166.78-96.95a6.24 6.24 0 0 0-3.11-.85c-1.58 0-3.16.63-4.31 1.74a6.15 6.15 0 0 0-1.9 4.47v57.55H313.18c-16.48 0-32.72-4.35-46.96-12.59l-92.46-53.39L1.03 331.37l-.09.05-265.65-154.02a98.55 98.55 0 0 0-49.37-13.28h-417.61c-3.24 0-5.98 2.1-6.82 5.23s.48 6.32 3.27 7.93l250.01 144.99a98.6 98.6 0 0 0 49.39 13.28h179.18c16.48 0 32.72 4.35 46.96 12.59l85.82 49.56h-312.05c-16.51 0-32.78-4.37-47.07-12.65l-264.98-153.44V102.33zm0-2.25h-436.88v132.84l266.11 154.09a96.1 96.1 0 0 0 48.19 12.95h320.45l-93.09-53.76a96.1 96.1 0 0 0-48.09-12.89h-179.18c-16.96 0-33.6-4.48-48.26-12.98l-250.01-144.99c-4.25-2.46-2.5-8.97 2.41-8.97h417.61c16.94 0 33.58 4.48 48.24 12.98L-.11 333.42v-.11l172.71 100.4 92.47 53.39a96.1 96.1 0 0 0 48.09 12.89h436.88v-59.8c0-2.31 1.89-3.96 3.96-3.95.66 0 1.34.17 1.98.54l166.78 96.95 92.47 53.39a96.1 96.1 0 0 0 48.09 12.89h436.88v-66.28h-436.17c-16.94 0-33.58-4.48-48.24-12.98L750.05 366.68v.45L483.94 213.04a96.1 96.1 0 0 0-48.19-12.95H115.3l93.09 53.76a96.1 96.1 0 0 0 48.09 12.89h179.18c16.96 0 33.6 4.48 48.26 12.98l250.01 144.99c4.25 2.46 2.5 8.97-2.41 8.97H313.91c-16.94 0-33.58-4.48-48.24-12.98L-.08 266.62v.11l-172.71-100.4-92.47-53.39a96.26 96.26 0 0 0-48.09-12.87Z" class="cls-1"/></g></g></svg>